<svg width="130" height="23" viewBox="0 0 130 23" fill="none" xmlns="http://www.w3.org/2000/svg">
<path d="M74.1404 7.84327L75.9804 9.68514V17.9837H72.5431V11.0412L72.0982 10.596H71.249L69.955 11.8913V17.9837H66.5176V3.41064H69.955V9.44225L71.5523 7.84327H74.1404Z" fill="white"/>
<path d="M63.2015 7.8387L65.365 10.0044V15.105L62.4938 17.9791H59.1778V22.2296H55.7405V7.8387H58.7735L58.8139 9.43768L60.4112 7.8387H63.2015ZM60.7752 15.2264L61.9277 14.0727V11.3605L61.1594 10.5914H60.1079L59.1778 11.5224V15.2264H60.7752Z" fill="white"/>
<path d="M52.3994 7.8387L54.5629 10.0044V13.9108H48.2544V14.9228L48.7801 15.4491H51.2267L52.5611 14.1132L54.5629 16.117L52.7027 17.9791H46.9806L44.8171 15.8134V10.0044L46.9806 7.8387H52.3994ZM48.2544 11.826H51.1256V10.895L50.5998 10.3687H48.7801L48.2544 10.895V11.826Z" fill="white"/>
<path d="M43.3188 15.231H44.3703V17.9837H41.5193L39.3356 15.7977V3.41064H42.7729V14.6845L43.3188 15.231Z" fill="white"/>
<path d="M35.0449 17.9828L34.2362 15.554H29.2622L28.4534 17.9828H24.7734L29.9901 4.21944H33.6902L38.9069 17.9828H35.0449ZM30.2731 12.5584H33.2252L31.7492 8.12581L30.2731 12.5584Z" fill="white"/>
<path d="M126.563 3.41075H130V17.9838H126.967L126.927 16.3848L125.329 17.9838H122.539L120.375 15.8181V10.7175L123.247 7.84337H126.563V3.41075ZM124.581 15.2311H125.633L126.563 14.3V10.5961H124.965L123.813 11.7497V14.462L124.581 15.2311Z" fill="white"/>
<path d="M115.788 7.8388H119.226V17.9792H116.193L116.152 16.3802L114.555 17.9792H111.603L109.763 16.1373V7.8388H113.2V14.7812L113.645 15.2265H114.858L115.788 14.2955V7.8388Z" fill="white"/>
<path d="M106.502 7.8388L108.666 10.0045V15.8135L106.502 17.9792H101.164L99.0009 15.8135V10.0045L101.164 7.8388H106.502ZM104.703 15.2265L105.228 14.7003V11.1177L104.703 10.5915H102.964L102.438 11.1177V14.7003L102.964 15.2265H104.703Z" fill="white"/>
<path d="M97.5025 15.2311H98.5539V17.9838H95.7029L93.5192 15.7978V3.41075H96.9565V14.6846L97.5025 15.2311Z" fill="white"/>
<path d="M90.4075 13.2062L92.8945 15.6958L90.6097 17.9829H83.7755L81.0459 15.2505V6.95198L83.7755 4.21954H90.4682L92.753 6.50669L90.266 8.99625L88.7293 7.45799H85.5346L84.6854 8.30808V13.8944L85.5346 14.7445H88.8708L90.4075 13.2062Z" fill="white"/>
<g clip-path="url(#clip0_1155_1871)">
<g clip-path="url(#clip1_1155_1871)">
<path d="M16.0255 8.09446C18.0348 8.09446 19.6502 6.4791 19.6502 4.4796C19.6502 2.4801 18.025 0.864746 16.0255 0.864746C14.0161 0.864746 12.4008 2.4801 12.4008 4.4796C12.4008 6.4791 14.0161 8.09446 16.0255 8.09446Z" fill="white"/>
<path d="M3.62475 20.4262C5.6341 20.4262 7.24946 18.8109 7.24946 16.8114C7.24946 14.8119 5.62425 13.1965 3.62475 13.1965C1.6154 13.1965 4.45361e-05 14.8119 4.45361e-05 16.8114C-0.00980521 18.8109 1.6154 20.4262 3.62475 20.4262Z" fill="white"/>
<path d="M13.4549 1.9284C10.0174 0.510035 5.91003 1.18967 3.1127 3.9673C0.315374 6.75478 -0.364259 10.8326 1.0541 14.2603L13.4549 1.9284Z" fill="white"/>
<path d="M6.18567 19.3724C9.62323 20.7908 13.7306 20.1111 16.5279 17.3335C19.3252 14.546 20.0049 10.4682 18.5865 7.04053L6.18567 19.3724Z" fill="white"/>
</g>
</g>
<defs>
<clipPath id="clip0_1155_1871">
<rect width="19.6503" height="19.6503" fill="white" transform="translate(0 0.864746)"/>
</clipPath>
<clipPath id="clip1_1155_1871">
<rect width="19.6503" height="19.6503" fill="white" transform="translate(0 0.864746)"/>
</clipPath>
</defs>
</svg>
