<svg width="287" height="95" viewBox="0 0 287 95" fill="none" xmlns="http://www.w3.org/2000/svg">
<g clip-path="url(#clip0_2204_4314)">
<path d="M89.2404 47.4433C88.264 -0.703993 25.162 -18.6482 0.868138 26.4698C1.94182 27.2573 3.42691 28.3224 4.50059 29.1092C2.63939 33.0708 1.39848 37.106 0.719895 41.1277C0.247849 43.7644 0 46.4803 0 49.2553C0 74.2407 19.9858 94.495 44.6395 94.495C69.2932 94.495 89.279 74.2404 89.279 49.2553C89.279 48.6484 89.2637 48.0448 89.2404 47.4433ZM11.0203 55.5229C10.4333 60.4231 10.7994 61.9534 10.7981 62.5357L9.72375 62.9316C9.318 62.1259 8.28629 59.2863 7.83157 55.4705C6.66927 40.9018 16.4643 27.7726 31.3756 25.3286C45.0512 23.2917 58.127 31.8995 61.1898 43.9477L60.1128 44.345C59.7926 43.9862 59.2216 43.0114 57.1542 40.888C40.6616 24.0968 14.7404 31.7984 11.0203 55.5229ZM53.4961 63.6718C51.2974 66.879 47.6367 68.9791 43.4912 68.9791C36.7673 68.9791 31.3163 63.4551 31.3163 56.6404C31.3163 50.127 36.2962 44.793 42.6077 44.3342C46.5387 44.1742 50.2011 46.3268 51.9451 49.8173C53.8252 53.5803 53.1373 58.2222 50.2088 61.3522C51.3048 62.1252 52.4004 62.8982 53.4961 63.6711V63.6718ZM78.8823 64.1486C72.4416 78.9637 59.189 86.7174 45.0343 86.5378C17.8825 85.1728 9.98426 53.3957 28.1295 41.9233L28.9281 42.7325C28.6182 43.1443 27.5652 44.0096 25.8686 47.3743C23.8918 51.4623 23.2888 55.5374 23.5227 58.0862C24.9355 80.2997 55.6002 84.8174 66.1627 62.8586C79.6069 32.7367 43.9709 2.14577 12.3298 25.5261L11.5993 24.7859C19.9219 11.5519 36.1833 5.62884 51.7145 9.58597C75.4654 15.604 88.2153 40.7101 78.882 64.1486H78.8823Z" fill="white"/>
<path d="M128.808 29.7885V50.6785C128.808 58.9847 123.803 65.2015 114.628 65.2015C105.452 65.2015 100.447 58.9847 100.447 50.6785V29.7885H107.905V50.0814C107.905 55.1547 110.261 58.0392 114.628 58.0392C118.995 58.0392 121.35 55.1547 121.35 50.0814V29.7885H128.808ZM156.543 54.5579C156.543 60.5759 151.882 64.9033 144.375 64.9033H132.5V30.0871H143.933C150.556 30.0871 154.924 33.32 154.924 38.4927C154.924 42.4221 153.108 44.8093 150.41 45.9531C154.04 47.3459 156.543 49.8825 156.543 54.5579ZM139.958 36.7516V44.1127H143.883C146.189 44.1127 147.759 42.7697 147.759 40.4322C147.759 38.0947 146.189 36.7513 143.883 36.7513L139.958 36.7516ZM144.08 58.2384C147.269 58.2384 149.085 56.7462 149.085 53.8617C149.085 50.9771 147.269 49.4846 144.08 49.4846H139.958V58.2384H144.08ZM159.432 30.0868H166.89V64.9029H159.432V30.0868ZM184.915 44.1628C190.803 46.2517 193.845 48.9375 193.845 54.3093C193.845 61.5213 188.398 65.5001 181.971 65.5001C176.034 65.5001 171.47 62.8146 169.557 57.8404L175.494 53.3643C176.573 56.4977 179.37 58.4376 182.167 58.4376C184.62 58.4376 186.387 57.0945 186.387 54.8564C186.387 52.7671 185.062 51.4741 180.155 49.6837C174.856 47.7442 170.93 45.0581 170.93 39.2883C170.93 33.7176 175.494 29.4903 182.118 29.4903C187.368 29.4903 191.441 31.629 193.354 35.8566L187.417 40.0345C186.289 37.4482 184.522 36.0057 181.823 36.0057C179.566 36.0057 177.898 37.2494 177.898 39.0398C177.898 41.079 179.763 42.3223 184.915 44.1628ZM230.854 47.495C230.854 57.741 223.592 65.5001 213.386 65.5001C202.935 65.5001 195.918 57.8905 195.918 48.689C195.918 42.7203 198.224 38.3932 201.61 35.558L200.432 34.3644C203.033 31.629 207.792 29.4903 213.386 29.4903C223.592 29.4903 230.854 37.3488 230.854 47.4954L230.854 47.495ZM223.297 47.495C223.297 41.2281 219.372 36.6522 213.386 36.6522C209.902 36.6522 207.301 37.9953 205.731 39.736L206.909 40.9296C205.093 42.4714 203.474 44.6101 203.474 48.4401C203.474 53.7125 207.154 58.3378 213.386 58.3378C219.372 58.3378 223.297 53.7622 223.297 47.4954V47.495ZM241.352 37.249V45.307H255.925V51.0761H241.352V64.9029H233.894V30.0868H257.397V37.249H241.352ZM287 37.249H277.383V64.9033H269.925V37.249H260.258V30.0868H287L287 37.249Z" fill="white"/>
</g>
<defs>
<clipPath id="clip0_2204_4314">
<rect width="287" height="94" fill="white" transform="translate(0 0.494995)"/>
</clipPath>
</defs>
</svg>
