<svg width="38" height="37" viewBox="0 0 38 37" fill="none" xmlns="http://www.w3.org/2000/svg">
<path d="M22.6324 15.312C21.273 13.9525 21.273 11.7482 22.6324 10.3887L10.7805 22.2399C12.14 20.8804 14.3443 20.8804 15.7038 22.2399C17.0633 23.5993 17.0633 25.8037 15.7038 27.1632L27.5557 15.3112C26.1963 16.6707 23.9919 16.6715 22.6324 15.312Z" fill="white"/>
<path d="M19.1685 0.552734C9.10901 0.552734 0.944824 8.71692 0.944824 18.7764C0.944824 28.8358 9.10901 37 19.1685 37C29.2279 37 37.3921 28.8358 37.3921 18.7764C37.3921 8.71692 29.2279 0.552734 19.1685 0.552734ZM25.5846 25.1925C22.913 27.8641 18.9913 28.5202 15.7045 27.1643C14.345 28.5238 12.1407 28.5238 10.7812 27.1643C9.42173 25.8049 9.42173 23.6005 10.7812 22.241C9.42537 18.9535 10.0814 15.0318 12.753 12.3609C15.4239 9.68933 19.3463 9.03328 22.6331 10.3891C23.9926 9.02964 26.1969 9.02964 27.5564 10.3891C28.9159 11.7486 28.9159 13.9529 27.5564 15.3124C28.9123 18.6 28.2562 22.5217 25.5846 25.1925Z" fill="white"/>
</svg>
