<svg width="50" height="51" viewBox="0 0 50 51" fill="none" xmlns="http://www.w3.org/2000/svg">
<g id="Confidential Icon">
<path id="Vector" d="M28.6235 38.4933C27.4293 38.7192 26.2165 38.8324 25.001 38.8314C16.3495 38.8314 9.02727 33.1456 6.56396 25.3074C7.22716 23.1979 8.24866 21.2183 9.58368 19.4554M20.9013 21.2097C21.9884 20.1226 23.4628 19.5119 25.0001 19.5119C26.5374 19.5119 28.0118 20.1226 29.0988 21.2097C30.1859 22.2967 30.7966 23.7711 30.7966 25.3084C30.7966 26.8457 30.1859 28.3201 29.0988 29.4071M20.9013 21.2097L29.0988 29.4071M20.9013 21.2097L29.0969 29.4033M29.0988 29.4071L35.457 35.7634M20.9052 21.2116L14.5489 14.8553M14.5489 14.8553L7.61304 7.91943M14.5489 14.8553C17.664 12.8452 21.2937 11.7784 25.001 11.7834C33.6525 11.7834 40.9748 17.4693 43.4381 25.3074C42.0781 29.6167 39.2541 33.3148 35.4551 35.7615M14.5489 14.8553L35.4551 35.7615M35.4551 35.7615L42.3891 42.6954" stroke="#231271" stroke-width="2" stroke-linecap="round" stroke-linejoin="round"/>
</g>
</svg>
