<svg width="24" height="25" viewBox="0 0 24 25" fill="none" xmlns="http://www.w3.org/2000/svg">
<path d="M7.42505 3.23579C7.60245 2.73781 8.07392 2.40527 8.60256 2.40527H15.0562C15.9094 2.40527 16.5118 3.24114 16.242 4.05055L14.7905 8.40527H18.7492C19.8534 8.40527 20.4153 9.7321 19.647 10.5251L8.586 21.9413C7.53226 23.0289 5.71405 22.0475 6.04495 20.5698L7.31418 14.9017L5.74573 14.8957C4.53898 14.8911 3.69895 13.6952 4.10392 12.5585L7.42505 3.23579ZM8.77889 3.90527L5.51693 13.0618C5.45908 13.2242 5.57909 13.3951 5.75148 13.3957L8.25277 13.4053C8.47997 13.4062 8.69453 13.51 8.83621 13.6876C8.97789 13.8652 9.03142 14.0975 8.98177 14.3192L7.50871 20.8976L18.1589 9.90527H13.7499C13.5088 9.90527 13.2824 9.78938 13.1415 9.5938C13.0005 9.39823 12.9622 9.14681 13.0384 8.9181L14.7093 3.90527H8.77889Z" fill="#3A2986"/>
</svg>
