<svg width="50" height="51" viewBox="0 0 50 51" fill="none" xmlns="http://www.w3.org/2000/svg">
<g id="globe-alt">
<path id="Vector" d="M43.751 25.3076C43.751 30.2804 41.7755 35.0496 38.2592 38.5659C34.7429 42.0822 29.9738 44.0576 25.001 44.0576M43.751 25.3076C43.751 20.3348 41.7755 15.5657 38.2592 12.0494C34.7429 8.53306 29.9738 6.55762 25.001 6.55762M43.751 25.3076H6.25098M25.001 44.0576C20.0282 44.0576 15.259 42.0822 11.7427 38.5659C8.22642 35.0496 6.25098 30.2804 6.25098 25.3076M25.001 44.0576C28.4531 44.0576 31.251 35.6618 31.251 25.3076C31.251 14.9535 28.4531 6.55762 25.001 6.55762M25.001 44.0576C21.5489 44.0576 18.751 35.6618 18.751 25.3076C18.751 14.9535 21.5489 6.55762 25.001 6.55762M25.001 6.55762C20.0282 6.55762 15.259 8.53306 11.7427 12.0494C8.22642 15.5657 6.25098 20.3348 6.25098 25.3076" stroke="#231271" stroke-width="2" stroke-linecap="round" stroke-linejoin="round"/>
</g>
</svg>
