<svg width="24" height="25" viewBox="0 0 24 25" fill="none" xmlns="http://www.w3.org/2000/svg">
<path d="M11.0242 7.88582L10.8009 8.79546L9.73088 8.7956L9.62911 8.80245C9.26304 8.85211 8.98088 9.16591 8.98088 9.5456L8.98773 9.64737C9.03739 10.0134 9.35119 10.2956 9.73088 10.2956L10.4339 10.2955L10.0459 11.8815L9.25 11.8824L9.14823 11.8892C8.78215 11.9389 8.5 12.2527 8.5 12.6324L8.50685 12.7342C8.55651 13.1002 8.8703 13.3824 9.25 13.3824L9.67887 13.3815L9.55583 13.8887L9.5383 13.9892C9.49956 14.3566 9.73733 14.7052 10.1061 14.7954L10.2066 14.8129C10.574 14.8517 10.9227 14.6139 11.0129 14.2451L11.2229 13.3815H12.7619L12.6444 13.8994L12.6284 14.0001C12.595 14.3681 12.8379 14.7132 13.208 14.798L13.3087 14.814C13.6766 14.8474 14.0217 14.6045 14.1065 14.2344L14.3009 13.3815L15.2416 13.3824L15.3433 13.3755C15.7094 13.3259 15.9916 13.0121 15.9916 12.6324L15.9847 12.5306C15.935 12.1645 15.6212 11.8824 15.2416 11.8824L14.6449 11.8815L15.0079 10.2955L15.7279 10.2956L15.8297 10.2888C16.1958 10.2391 16.4779 9.9253 16.4779 9.5456L16.4711 9.44383C16.4214 9.07776 16.1076 8.7956 15.7279 8.7956L15.3519 8.79546L15.4818 8.23151L15.4979 8.13078C15.5312 7.76286 15.2883 7.41775 14.9182 7.33296L14.8175 7.31691C14.4496 7.28356 14.1045 7.52643 14.0197 7.89653L13.8129 8.79546H12.3449L12.4812 8.24222L12.4988 8.14174C12.5375 7.77435 12.2997 7.42572 11.9309 7.3355C11.5286 7.23708 11.1226 7.48347 11.0242 7.88582ZM11.9779 10.2955H13.4689L13.1059 11.8815H11.5899L11.9779 10.2955ZM6.5 2.31531C5.11929 2.31531 4 3.4346 4 4.81531V19.8153C4 21.196 5.11929 22.3153 6.5 22.3153H19.75C20.1642 22.3153 20.5 21.9795 20.5 21.5653C20.5 21.1511 20.1642 20.8153 19.75 20.8153H6.5C5.94772 20.8153 5.5 20.3676 5.5 19.8153H19.75C20.1642 19.8153 20.5 19.4795 20.5 19.0653V4.81531C20.5 3.4346 19.3807 2.31531 18 2.31531H6.5ZM19 18.3153H5.5V4.81531C5.5 4.26303 5.94772 3.81531 6.5 3.81531H18C18.5523 3.81531 19 4.26303 19 4.81531V18.3153Z" fill="#3A2986"/>
</svg>
