<svg width="50" height="51" viewBox="0 0 50 51" fill="none" xmlns="http://www.w3.org/2000/svg">
<g id="lock-closed">
<path id="Vector" d="M25.0011 31.5576V35.7243M12.5011 44.0576H37.5011C38.6062 44.0576 39.666 43.6186 40.4474 42.8372C41.2288 42.0558 41.6678 40.996 41.6678 39.8909V27.3909C41.6678 26.2859 41.2288 25.2261 40.4474 24.4447C39.666 23.6633 38.6062 23.2243 37.5011 23.2243H12.5011C11.3961 23.2243 10.3363 23.6633 9.55486 24.4447C8.77346 25.2261 8.33447 26.2859 8.33447 27.3909V39.8909C8.33447 40.996 8.77346 42.0558 9.55486 42.8372C10.3363 43.6186 11.3961 44.0576 12.5011 44.0576ZM33.3345 23.2243V14.891C33.3345 12.6808 32.4565 10.5612 30.8937 8.99839C29.3309 7.43559 27.2113 6.55762 25.0011 6.55762C22.791 6.55762 20.6714 7.43559 19.1086 8.99839C17.5458 10.5612 16.6678 12.6808 16.6678 14.891V23.2243H33.3345Z" stroke="#231271" stroke-width="2" stroke-linecap="round" stroke-linejoin="round"/>
</g>
</svg>
