<svg width="50" height="50" viewBox="0 0 50 50" fill="none" xmlns="http://www.w3.org/2000/svg">
<g id="lock-Open">
<path id="Vector" d="M25 31.25V35.4167M33.3333 22.9167V10.5833C33.3333 8.37319 32.4553 6.25358 30.8925 4.69078C29.3297 3.12797 27.2101 2.25 25 2.25C22.7898 2.25 20.6702 3.12797 19.1074 4.69078C17.5446 6.25358 16.6666 8.37319 16.6666 10.5833M12.5 43.75H37.5C38.605 43.75 39.6649 43.311 40.4463 42.5296C41.2277 41.7482 41.6666 40.6884 41.6666 39.5833V27.0833C41.6666 25.9783 41.2277 24.9185 40.4463 24.1371C39.6649 23.3557 38.605 22.9167 37.5 22.9167H12.5C11.3949 22.9167 10.3351 23.3557 9.5537 24.1371C8.7723 24.9185 8.33331 25.9783 8.33331 27.0833V39.5833C8.33331 40.6884 8.7723 41.7482 9.5537 42.5296C10.3351 43.311 11.3949 43.75 12.5 43.75Z" stroke="#231271" stroke-width="2" stroke-linecap="round" stroke-linejoin="round"/>
</g>
</svg>
