<svg width="14" height="13" viewBox="0 0 14 13" fill="none" xmlns="http://www.w3.org/2000/svg">
    <g clip-path="url(#clip0_11476_1067)">
        <path d="M11.6946 9.75H6.63905L3.75016 11.9167V9.75H2.30572C2.11417 9.75 1.93047 9.67391 1.79503 9.53847C1.65959 9.40302 1.5835 9.21932 1.5835 9.02778V1.80556C1.5835 1.61401 1.65959 1.43031 1.79503 1.29487C1.93047 1.15942 2.11417 1.08333 2.30572 1.08333H11.6946C11.8862 1.08333 12.0699 1.15942 12.2053 1.29487C12.3407 1.43031 12.4168 1.61401 12.4168 1.80556V9.02778C12.4168 9.21932 12.3407 9.40302 12.2053 9.53847C12.0699 9.67391 11.8862 9.75 11.6946 9.75Z"
              stroke="white" stroke-width="1.5" stroke-linecap="round" stroke-linejoin="round"/>
    </g>
    <defs>
        <clipPath id="clip0_11476_1067">
            <rect width="13" height="13" fill="white" transform="translate(0.5)"/>
        </clipPath>
    </defs>
</svg>
