<svg width="38" height="37" viewBox="0 0 38 37" fill="none" xmlns="http://www.w3.org/2000/svg">
<path d="M19 0.552734C8.94055 0.552734 0.776367 8.71692 0.776367 18.7764C0.776367 28.8358 8.94055 37 19 37C29.0594 37 37.2236 28.8358 37.2236 18.7764C37.2236 8.71692 29.0594 0.552734 19 0.552734ZM27.4558 11.4869L23.8839 25.8471C23.6653 26.4303 23.155 26.7948 22.6447 26.7948C22.426 26.7948 22.1345 26.7219 21.9158 26.5761L17.9795 23.5874L15.574 25.6285C15.5011 25.7013 15.4282 25.7013 15.4282 25.7013C15.3553 25.7013 15.2095 25.6285 15.2095 25.5556L12.6582 20.4529L8.43029 18.9951C7.92003 18.8493 7.92003 18.0474 8.43029 17.9016L26.7997 10.9038C26.8726 10.9038 26.9455 10.8309 27.0184 10.8309C27.2371 10.758 27.5287 11.1224 27.4558 11.4869Z" fill="white"/>
<path d="M13.606 20.1622L15.5012 24.1714L15.2825 21.4743L23.8112 14.0391L13.606 20.1622Z" fill="white"/>
</svg>
