<svg width="38" height="37" viewBox="0 0 38 37" fill="none" xmlns="http://www.w3.org/2000/svg">
<path d="M19.0496 17.0369L13.772 9.36914H10.9648L17.4911 18.8505L18.2915 20.0139L23.9153 28.1847H26.7225L19.8507 18.2003L19.0496 17.0369Z" fill="white"/>
<path d="M18.8315 0.552734C8.7721 0.552734 0.60791 8.71692 0.60791 18.7764C0.60791 28.8358 8.7721 37 18.8315 37C28.891 37 37.0552 28.8358 37.0552 18.7764C37.0552 8.71692 28.891 0.552734 18.8315 0.552734ZM23.1753 29.5925L22.7555 28.9831L17.3423 21.1185L10.058 29.5925H8.26184L16.5412 19.9558L9.80428 10.1675L8.28589 7.96101H14.5118L14.9317 8.57113L19.9986 15.932L25.3177 9.74109L26.855 7.96101H28.6512L20.799 17.0961L27.8821 27.3867L29.4005 29.5932H23.1746L23.1753 29.5925Z" fill="white"/>
</svg>
