<svg width="24" height="24" viewBox="0 0 24 24" fill="none" xmlns="http://www.w3.org/2000/svg">
<g clip-path="url(#clip0_1031_3896)">
<path d="M2.11974 12.6908C2.11974 13.105 2.45553 13.4408 2.86974 13.4408C3.28396 13.4408 3.61974 13.105 3.61974 12.6908H2.11974ZM19 19.5454V18.7954C18.5858 18.7954 18.25 19.1312 18.25 19.5454H19ZM14 19.5454L14.4932 18.9803C14.3565 18.8611 14.1813 18.7954 14 18.7954V19.5454ZM10.3197 18.7954C9.90553 18.7954 9.56975 19.1312 9.56975 19.5454C9.56975 19.9596 9.90553 20.2954 10.3197 20.2954V18.7954ZM3.61974 17.1635C3.61974 16.7493 3.28396 16.4135 2.86974 16.4135C2.45553 16.4135 2.11974 16.7493 2.11974 17.1635H3.61974ZM4.96975 20.2954C5.38396 20.2954 5.71975 19.9596 5.71975 19.5454C5.71975 19.1312 5.38396 18.7954 4.96975 18.7954V20.2954ZM2.11975 21.9272C2.11975 22.3414 2.45553 22.6772 2.86975 22.6772C3.28396 22.6772 3.61975 22.3414 3.61975 21.9272H2.11975ZM0.769745 18.7954C0.355531 18.7954 0.0197449 19.1312 0.0197449 19.5454C0.0197449 19.9596 0.355531 20.2954 0.769745 20.2954V18.7954ZM17.3425 22.4624L17.8356 21.8974L17.3425 22.4624ZM2.86974 12.6908H3.61974V5.45446H2.86974H2.11974V12.6908H2.86974ZM2.86974 5.45446H3.61974C3.61974 3.39587 5.13485 1.84082 6.86975 1.84082V1.09082V0.34082C4.18624 0.34082 2.11974 2.69297 2.11974 5.45446H2.86974ZM6.86975 1.09082V1.84082H19V1.09082V0.34082H6.86975V1.09082ZM19 1.09082V1.84082C20.7349 1.84082 22.25 3.39587 22.25 5.45446H23H23.75C23.75 2.69297 21.6835 0.34082 19 0.34082V1.09082ZM23 5.45446H22.25V15.1817H23H23.75V5.45446H23ZM23 15.1817H22.25C22.25 17.2403 20.7349 18.7954 19 18.7954V19.5454V20.2954C21.6835 20.2954 23.75 17.9432 23.75 15.1817H23ZM19 19.5454H18.25V21.709H19H19.75V19.5454H19ZM17.3425 22.4624L17.8356 21.8974L14.4932 18.9803L14 19.5454L13.5069 20.1104L16.8493 23.0275L17.3425 22.4624ZM14 19.5454V18.7954H10.3197V19.5454V20.2954H14V19.5454ZM2.86974 17.1635H2.11974V19.5454H2.86974H3.61974V17.1635H2.86974ZM2.86974 19.5454V20.2954H4.96975V19.5454V18.7954H2.86974V19.5454ZM2.86975 21.9272H3.61975L3.61974 19.5454H2.86974H2.11974L2.11975 21.9272H2.86975ZM2.86974 19.5454V18.7954H0.769745V19.5454V20.2954H2.86974V19.5454ZM19 21.709H18.25C18.25 21.9236 17.9973 22.0385 17.8356 21.8974L17.3425 22.4624L16.8493 23.0275C17.9813 24.0154 19.75 23.2115 19.75 21.709H19Z" fill="#EA7AF4"/>
</g>
<defs>
<clipPath id="clip0_1031_3896">
<rect width="24" height="24" fill="white"/>
</clipPath>
</defs>
</svg>
