<svg width="200" height="44" viewBox="0 0 200 44" fill="none" xmlns="http://www.w3.org/2000/svg">
<path d="M34.5824 33.0048C34.2741 33.0048 34.0858 32.8813 33.9659 32.6385C33.8417 32.3915 33.8417 32.1488 33.9959 31.9018L47.7552 8.27467C47.9093 7.99786 48.1276 7.75511 48.3716 7.56773C48.6499 7.3548 48.9881 7.26111 49.4248 7.26111H55.1443C55.5766 7.26111 55.8549 7.3548 56.039 7.56773C56.2231 7.78067 56.3173 8.02767 56.3472 8.27467L59.9947 31.9018C60.0546 32.2382 59.9947 32.515 59.8106 32.6981C59.6265 32.8813 59.3782 33.0048 59.1299 33.0048H54.6477C54.2752 33.0048 53.9969 32.9111 53.8428 32.7578C53.6887 32.6044 53.5645 32.3915 53.5346 32.1743L52.9181 28.4906H42.9946L40.7685 32.2339C40.6443 32.4171 40.4902 32.5704 40.2719 32.7535C40.0535 32.9366 39.7753 33.0005 39.4071 33.0005H34.5824V33.0048ZM45.6532 23.1843H52.5499L51.1886 13.4575L45.6532 23.1843Z" fill="#474B64"/>
<path d="M63.2783 33.0048C63 33.0048 62.7817 32.9111 62.6618 32.7578C62.5077 32.6045 62.4777 32.3575 62.5077 32.1148L67.7349 7.78071C67.7948 7.5039 67.919 7.29097 68.1373 7.10784C68.3556 6.92472 68.5996 6.86084 68.848 6.86084H73.2403C73.4886 6.86084 73.6727 6.95453 73.8268 7.10784C73.9809 7.29097 74.0109 7.50816 73.9809 7.78071L68.788 32.0849C68.7281 32.3618 68.6039 32.5747 68.3856 32.728C68.1673 32.9111 67.9232 32.975 67.6749 32.975H63.2826V33.0048H63.2783Z" fill="#474B64"/>
<path d="M82.2905 33.3753C80.3726 33.3753 78.7329 33.0091 77.4358 32.3319C76.1386 31.6591 75.2396 30.5816 74.7772 29.172C74.2806 27.7624 74.2507 26.0419 74.6231 24.0147C74.683 23.8316 74.7173 23.6144 74.7772 23.3419C74.8372 23.0651 74.8714 22.8521 74.9313 22.7286C75.4279 20.7952 76.2285 19.1386 77.3116 17.7247C78.3947 16.3449 79.7218 15.2717 81.3315 14.5648C82.9069 13.828 84.6707 13.4916 86.5587 13.4916C88.7249 13.4916 90.4245 13.9217 91.6617 14.782C92.8989 15.6422 93.7037 16.8091 94.1062 18.2783C94.5086 19.7518 94.5086 21.4383 94.1062 23.3121L93.952 24.2021C93.8921 24.4789 93.768 24.6919 93.5197 24.875C93.2714 25.0581 93.0231 25.122 92.7448 25.122H80.9034V25.2455C80.9034 25.3051 80.8734 25.3392 80.8435 25.3988C80.7193 26.1058 80.7193 26.7488 80.8135 27.3621C80.9077 27.9455 81.1517 28.4054 81.5541 28.7717C81.9565 29.1379 82.4831 29.2912 83.1638 29.2912C83.6262 29.2912 84.0585 29.1976 84.431 29.0442C84.8034 28.8909 85.1117 28.7078 85.39 28.4906C85.6682 28.2777 85.8866 28.0903 86.0706 27.9711C86.3489 27.7241 86.5672 27.5707 86.6871 27.5111C86.8412 27.4515 87.0596 27.4174 87.3678 27.4174H91.9742C92.2225 27.4174 92.4066 27.477 92.5307 27.6304C92.6549 27.7837 92.6849 27.9668 92.5907 28.2138C92.4665 28.6439 92.1583 29.1337 91.6317 29.7171C91.1351 30.3005 90.4245 30.884 89.5297 31.4674C88.6307 32.0509 87.5818 32.5108 86.3746 32.877C85.1673 33.2433 83.8102 33.4307 82.2947 33.4307V33.371L82.2905 33.3753ZM81.704 21.4681H87.98V21.4084C88.2283 20.6121 88.2583 19.9349 88.1041 19.3515C87.98 18.7681 87.7017 18.3081 87.2993 18.0015C86.8969 17.6949 86.3403 17.5118 85.6896 17.5118C85.0389 17.5118 84.4224 17.6651 83.8959 18.0015C83.3693 18.3081 82.9069 18.7681 82.5645 19.3515C82.192 19.9349 81.9137 20.6419 81.7297 21.4084V21.4681H81.6997H81.704Z" fill="#474B64"/>
<path d="M94.35 40.0018C94.0717 40.0018 93.8876 39.9081 93.7335 39.7548C93.6094 39.5717 93.5494 39.3545 93.6094 39.0777L98.8023 14.7734C98.8622 14.4966 98.9864 14.2837 99.2047 14.0963C99.423 13.9132 99.6671 13.8493 99.9453 13.8493H104.089C104.368 13.8493 104.552 13.943 104.706 14.0963C104.86 14.2496 104.89 14.4966 104.83 14.7734L104.582 16.1234C105.322 15.3569 106.157 14.7436 107.056 14.2198C107.951 13.7002 109.128 13.4532 110.549 13.4532C111.757 13.4532 112.806 13.6364 113.735 14.0367C114.634 14.4029 115.374 14.9864 115.931 15.7231C116.487 16.4599 116.86 17.3797 117.014 18.4529C117.198 19.5261 117.168 20.7526 116.954 22.1026C116.894 22.5924 116.8 23.0225 116.706 23.393C116.611 23.7592 116.522 24.1894 116.397 24.6834C116.059 25.9737 115.593 27.1704 115.036 28.2436C114.479 29.3168 113.799 30.2367 113.028 30.9734C112.253 31.7102 111.329 32.3234 110.305 32.7237C109.287 33.124 108.174 33.337 106.936 33.337C105.699 33.337 104.586 33.124 103.721 32.6939C102.826 32.2638 102.176 31.6505 101.803 30.884L100.01 39.0478C99.9496 39.3247 99.8255 39.5376 99.6071 39.7207C99.3888 39.874 99.1448 39.9677 98.8965 39.9677H94.3842L94.3543 39.9975L94.35 40.0018ZM105.635 28.4352C106.44 28.4352 107.12 28.2521 107.677 27.9157C108.233 27.5793 108.666 27.1193 109.038 26.5061C109.411 25.9226 109.689 25.2796 109.903 24.5428C110.027 24.1766 110.121 23.8061 110.211 23.4058C110.305 23.0054 110.365 22.6392 110.365 22.2687C110.46 21.5618 110.49 20.9187 110.395 20.3353C110.335 19.7518 110.087 19.2919 109.715 18.9256C109.342 18.5892 108.756 18.4061 107.921 18.4061C107.086 18.4061 106.435 18.5892 105.819 18.9256C105.202 19.2919 104.736 19.7561 104.368 20.3054C103.999 20.8548 103.751 21.4723 103.563 22.1452C103.409 22.6051 103.285 23.0651 103.225 23.4952C103.13 23.9253 103.07 24.4151 102.976 24.9048C102.882 25.5181 102.882 26.1015 102.976 26.6253C103.07 27.1449 103.349 27.575 103.781 27.9157C104.214 28.2521 104.8 28.4054 105.575 28.4054L105.635 28.4352Z" fill="#474B64"/>
<path d="M119.24 33.0048C118.962 33.0048 118.744 32.9111 118.624 32.7578C118.47 32.6045 118.44 32.3575 118.47 32.1147L123.697 7.81048C123.757 7.53367 123.881 7.32074 124.099 7.13336C124.318 6.95023 124.562 6.88635 124.81 6.88635H129.57C129.819 6.88635 130.003 6.98004 130.157 7.13336C130.311 7.31648 130.341 7.53367 130.311 7.81048L128.517 16.034C129.322 15.2674 130.187 14.6542 131.176 14.224C132.165 13.7641 133.278 13.5512 134.575 13.5512C136.09 13.5512 137.358 13.8578 138.411 14.5009C139.464 15.1439 140.175 16.0638 140.607 17.3244C141.039 18.5508 141.039 20.084 140.637 21.8641L138.411 32.1445C138.351 32.4213 138.227 32.6343 138.008 32.7876C137.79 32.9707 137.576 33.0346 137.328 33.0346H132.537C132.259 33.0346 132.041 32.9409 131.921 32.7876C131.767 32.6343 131.737 32.3873 131.767 32.1445L133.933 22.0813C134.181 20.9144 134.117 20.0243 133.749 19.4111C133.376 18.7979 132.666 18.4614 131.582 18.4614C130.902 18.4614 130.251 18.5849 129.665 18.8617C129.078 19.1385 128.551 19.5346 128.149 20.0882C127.717 20.6419 127.438 21.2849 127.254 22.0515L125.152 32.1147C125.092 32.3915 124.968 32.6045 124.75 32.7578C124.532 32.9409 124.288 33.0048 124.039 33.0048H119.249H119.24Z" fill="#474B64"/>
<path d="M153.189 32.7579C153.313 32.9112 153.527 33.0049 153.805 33.0049H158.198C158.446 33.0049 158.694 32.9452 158.908 32.7579C159.127 32.6045 159.247 32.3916 159.311 32.1148L162.988 14.8076C163.048 14.5308 163.018 14.288 162.864 14.1347C162.71 13.9814 162.526 13.8877 162.277 13.8877H157.885C157.607 13.8877 157.359 13.9473 157.145 14.1347C156.926 14.3178 156.806 14.535 156.742 14.8076L153.03 32.1148C153 32.3618 153.03 32.6045 153.185 32.7579H153.189Z" fill="#474B64"/>
<path d="M164.414 33.0048C164.136 33.0048 163.917 32.9111 163.797 32.7578C163.643 32.6045 163.613 32.3575 163.643 32.1147L167.355 14.8075C167.415 14.5307 167.539 14.3177 167.757 14.1346C167.976 13.9515 168.22 13.8876 168.498 13.8876H172.548C172.826 13.8876 173.01 13.9813 173.164 14.1346C173.318 14.2879 173.348 14.5349 173.288 14.8075L173.04 16.0638C173.473 15.6337 173.939 15.2035 174.431 14.8373C174.928 14.471 175.545 14.1304 176.225 13.8876C176.906 13.6406 177.711 13.5214 178.67 13.5214C180.091 13.5214 181.268 13.7982 182.163 14.3816C183.062 14.9352 183.679 15.7316 183.987 16.7452C184.792 15.8253 185.686 15.0587 186.675 14.4455C187.664 13.8322 188.871 13.5554 190.233 13.5554C191.594 13.5554 192.737 13.8322 193.696 14.4157C194.655 14.9991 195.336 15.8892 195.738 17.0859C196.141 18.2826 196.141 19.8157 195.738 21.7193L193.512 32.1829C193.452 32.4597 193.328 32.6726 193.11 32.8259C192.891 33.009 192.647 33.0729 192.399 33.0729H188.101C187.823 33.0729 187.604 32.9792 187.484 32.8259C187.33 32.6726 187.3 32.4256 187.33 32.1829L189.526 21.9961C189.711 21.1359 189.775 20.463 189.651 19.9392C189.526 19.4494 189.278 19.0789 188.94 18.866C188.602 18.6531 188.135 18.5296 187.609 18.5296C187.146 18.5296 186.65 18.6531 186.157 18.866C185.661 19.0789 185.228 19.4494 184.826 19.9392C184.423 20.4289 184.145 21.1359 183.961 21.9961L181.765 32.1829C181.705 32.4597 181.581 32.6726 181.362 32.8259C181.144 33.009 180.9 33.0729 180.652 33.0729H176.354C176.075 33.0729 175.857 32.9792 175.737 32.8259C175.583 32.6726 175.553 32.4256 175.583 32.1829L177.809 21.9961C177.993 21.1359 177.993 20.463 177.869 19.9392C177.745 19.4196 177.497 19.0789 177.158 18.866C176.82 18.6531 176.384 18.5296 175.861 18.5296C175.399 18.5296 174.902 18.6531 174.41 18.866C173.913 19.0789 173.481 19.4494 173.079 19.9392C172.676 20.4289 172.398 21.1061 172.214 21.9322L169.988 32.1829C169.928 32.4597 169.804 32.6726 169.585 32.8259C169.367 33.009 169.123 33.0729 168.875 33.0729H164.482L164.422 33.0133L164.414 33.0048Z" fill="#474B64"/>
<path d="M146.241 33.0645C148.08 33.0645 149.571 31.5811 149.571 29.7512C149.571 27.9214 148.08 26.438 146.241 26.438C144.401 26.438 142.91 27.9214 142.91 29.7512C142.91 31.5811 144.401 33.0645 146.241 33.0645Z" fill="#474B64"/>
<path d="M161.212 11.8307C163.051 11.8307 164.542 10.3473 164.542 8.51747C164.542 6.68761 163.051 5.20422 161.212 5.20422C159.372 5.20422 157.881 6.68761 157.881 8.51747C157.881 10.3473 159.372 11.8307 161.212 11.8307Z" fill="#474B64"/>
<path d="M20.7884 16.9814C23.389 16.9814 25.4952 14.8753 25.4952 12.2746C25.4952 9.67388 23.389 7.56775 20.7884 7.56775C18.1877 7.56775 16.0815 9.67388 16.0815 12.2746C16.0815 14.8753 18.1877 16.9814 20.7884 16.9814Z" fill="#474B64"/>
<path d="M4.70682 33.063C7.30751 33.063 9.41364 30.9569 9.41364 28.3562C9.41364 25.7555 7.30751 23.6494 4.70682 23.6494C2.10613 23.6494 0 25.7598 0 28.3562C0 30.9527 2.10613 33.063 4.70682 33.063Z" fill="#474B64"/>
<path d="M17.463 8.94909C12.9992 7.09876 7.67416 7.98982 4.04598 11.6137C0.417811 15.2419 -0.468981 20.5712 1.37708 25.0307L17.463 8.94482V8.94909Z" fill="#474B64"/>
<path d="M8.03223 31.6859C12.496 33.5362 17.821 32.6451 21.4492 29.0212C25.0774 25.3931 25.9642 20.0638 24.1139 15.6042L8.03223 31.6859Z" fill="#474B64"/>
</svg>
