<svg width="201" height="44" viewBox="0 0 201 44" fill="none" xmlns="http://www.w3.org/2000/svg">
<path d="M46.3953 17.7433V24.7681L47.7911 26.1639H51.2489V31.1668H44.0748L40.1402 27.2323V17.7433H36.3894V12.7404H40.5078L41.3924 6.15784H46.3953V12.7404H51.2489V17.7433H46.3953Z" fill="#474B64"/>
<path d="M80.916 12.7404L75.3961 31.1668H69.3248L66.1599 20.6095L62.995 31.1668H56.849L51.3291 12.7404H57.8772L60.4906 23.9238L63.8393 12.7404H68.693L72.0417 23.9238L74.6551 12.7404H80.9102H80.916Z" fill="#474B64"/>
<path d="M98.28 16.6749V23.7744H86.8037V25.6125L87.7629 26.5717H92.2145L94.6441 24.142L98.2858 27.7837L94.9026 31.1668H84.4946L80.5601 27.2322V16.6749L84.4946 12.7404H94.3512L98.2858 16.6749H98.28ZM92.0249 19.9834V18.289L91.0657 17.3297H87.7572L86.7979 18.289V19.9834H92.0192H92.0249Z" fill="#474B64"/>
<path d="M116.465 16.0891V31.1726H110.21V18.5532L109.4 17.7433H107.195L105.5 19.4378V31.1726H99.2451V12.7404H104.765L104.84 15.6468L107.746 12.7404H113.117L116.465 16.0891Z" fill="#474B64"/>
<path d="M126.914 17.7433V24.7681L128.309 26.1639H131.767V31.1668H124.593L120.658 27.2323V17.7433H116.908V12.7404H121.026L121.911 6.15784H126.914V12.7404H131.767V17.7433H126.914Z" fill="#474B64"/>
<path d="M151.205 12.7404L143.146 35.8022L140.056 38.8924H133.542V33.8894H136.925L137.884 32.9302L138.585 30.9084L131.819 12.7346H138.516L141.79 23.6251L144.915 12.7346H151.205V12.7404Z" fill="#474B64"/>
<path d="M167.776 22.9703V28.0823L164.685 31.1726H153.209L150.228 28.1915L153.944 24.4752L156.041 26.5717H161.009L161.526 26.0547V24.6188L161.124 24.2167L153.732 23.7744L150.9 20.9427V15.8306L153.99 12.7404H164.657L167.488 15.5721L163.772 19.2884L161.825 17.3412H157.666L157.149 17.8582V19.2942L157.552 19.702L164.944 20.1443L167.776 22.976V22.9703Z" fill="#474B64"/>
<path d="M168.516 4.68738H174.771V9.90859H168.516V4.68738ZM168.516 12.7403H174.771V31.1668H168.516V12.7403Z" fill="#474B64"/>
<path d="M188.419 31.1726L185.145 25.7273L181.98 31.1726H175.139L181.354 21.6836L175.507 12.7461H182.79L185.697 17.5997L188.494 12.7461H195.335L189.488 21.6836L195.703 31.1726H188.419Z" fill="#474B64"/>
<g clip-path="url(#clip0_11314_2631)">
<path d="M9.65617 12.5829L6.53589 11.5671V14.6874L9.65617 15.7032V12.5829Z" fill="#474B64"/>
<path d="M9.65617 21.9376L6.53589 20.9219V24.0422L9.65617 25.0518V21.9376Z" fill="#474B64"/>
<path d="M9.65617 25.0519L6.53589 24.0422V27.1564L9.65617 28.1722V25.0519Z" fill="#474B64"/>
<path d="M9.65617 28.1721L6.53589 27.1564V30.2767L9.65617 31.2924V28.1721Z" fill="#474B64"/>
<path d="M9.65617 31.2925L6.53589 30.2767V33.397L9.65617 34.4067V31.2925Z" fill="#474B64"/>
<path d="M12.7765 13.5926L9.65625 12.5829V15.7032L12.7765 16.7129V13.5926Z" fill="#474B64"/>
<path d="M12.7765 22.9473L9.65625 21.9376V25.0518L12.7765 26.0676V22.9473Z" fill="#474B64"/>
<path d="M12.7765 32.3022L9.65625 31.2925V34.4067L12.7765 35.4224V32.3022Z" fill="#474B64"/>
<path d="M15.8906 8.37386V5.25358L12.7764 4.2439V7.3581L15.8906 8.37386Z" fill="#474B64"/>
<path d="M15.8906 8.37392L12.7764 7.35815V10.4784L15.8906 11.4881V8.37392Z" fill="#474B64"/>
<path d="M15.8906 14.6083L12.7764 13.5925V16.7128L15.8906 17.7286V14.6083Z" fill="#474B64"/>
<path d="M15.8906 23.9632L12.7764 22.9474V26.0677L15.8906 27.0774V23.9632Z" fill="#474B64"/>
<path d="M15.8906 33.3179L12.7764 32.3021V35.4224L15.8906 36.4321V33.3179Z" fill="#474B64"/>
<path d="M19.0109 9.38351V6.2693L15.8906 5.25354V8.37382L19.0109 9.38351Z" fill="#474B64"/>
<path d="M19.0109 15.6242L15.8906 14.6084V17.7287L19.0109 18.7384V15.6242Z" fill="#474B64"/>
<path d="M19.0109 24.9728L15.8906 23.9631V27.0773L19.0109 28.0931V24.9728Z" fill="#474B64"/>
<path d="M19.0109 34.3276L15.8906 33.3179V36.4321L19.0109 37.4478V34.3276Z" fill="#474B64"/>
<path d="M22.1252 10.3993V7.27897L19.011 6.26929V9.38349L22.1252 10.3993Z" fill="#474B64"/>
<path d="M22.1252 16.6338L19.011 15.6241V18.7383L22.1252 19.7541V16.6338Z" fill="#474B64"/>
<path d="M22.1252 19.754L19.011 18.7383V21.8586L22.1252 22.8682V19.754Z" fill="#474B64"/>
<path d="M22.1252 22.8683L19.011 21.8586V24.9728L22.1252 25.9886V22.8683Z" fill="#474B64"/>
<path d="M22.1252 25.9885L19.011 24.9728V28.0931L22.1252 29.1088V25.9885Z" fill="#474B64"/>
<path d="M22.1252 35.3433L19.011 34.3275V37.4478L22.1252 38.4575V35.3433Z" fill="#474B64"/>
<path d="M25.2453 11.409V8.29482L22.125 7.27905V10.3993L25.2453 11.409Z" fill="#474B64"/>
<path d="M28.3656 12.4248V9.30448L25.2454 8.2948V11.409L28.3656 12.4248Z" fill="#474B64"/>
<path d="M28.3656 21.7795V18.6592L25.2454 17.6495V20.7637L28.3656 21.7795Z" fill="#474B64"/>
<path d="M28.3656 24.8938V21.7796L25.2454 20.7638V23.8841L28.3656 24.8938Z" fill="#474B64"/>
<path d="M28.3656 24.8937L25.2454 23.884V26.9982L28.3656 28.014V24.8937Z" fill="#474B64"/>
<path d="M28.3656 28.0141L25.2454 26.9983V30.1186L28.3656 31.1343V28.0141Z" fill="#474B64"/>
</g>
<defs>
<clipPath id="clip0_11314_2631">
<rect width="34.4531" height="34.4531" fill="white" transform="translate(0.311035 4.17053)"/>
</clipPath>
</defs>
</svg>
