<svg width="181" height="55" viewBox="0 0 181 55" fill="none" xmlns="http://www.w3.org/2000/svg">
	<path d="M162.684 38.9875H158.673L163.537 16.0121H167.547L162.684 38.9875Z" fill="#16122C" />
	<path
		d="M148.942 16.0121H153.142L156.963 38.9875H152.89L152.163 34.2022H142.626L139.974 38.9875H135.647L148.942 16.0121ZM144.458 30.8751H151.658L150.142 20.6709L144.458 30.8751Z"
		fill="#16122C"
	/>
	<path
		d="M129.21 17.4381H132.967V21.938H136.378V24.6634H132.967V33.9487C132.967 35.6916 133.378 36.1036 134.989 36.1036H136.347V38.9875H133.568C129.936 38.9875 129.21 38.0051 129.21 34.5191V24.6634H126.683V21.938H129.21V17.4381H129.21Z"
		fill="#16122C"
	/>
	<path
		d="M125.593 25.7728C124.962 25.7094 124.362 25.6778 123.794 25.6778C121.425 25.6778 120.067 26.6283 120.067 30.0511V38.9879H116.309V21.9384H120.004V24.9808C120.92 23.0793 122.562 21.9384 124.615 21.9068C124.899 21.9068 125.31 21.9384 125.594 21.9703V25.7732L125.593 25.7728Z"
		fill="#16122C"
	/>
	<path
		d="M100.551 31.5406C100.804 34.7095 103.015 36.2625 105.162 36.2625C107.12 36.2625 108.668 35.47 109.331 33.8856H113.025C112.236 36.611 109.71 39.3998 105.32 39.3998C99.8567 39.3998 96.7302 35.2169 96.7302 30.3366C96.7302 25.2027 100.236 21.5583 105.067 21.5583C110.278 21.5583 113.531 25.8047 113.215 31.5406H100.552H100.551ZM100.551 28.7833H109.394C109.299 26.1213 107.278 24.505 105.067 24.505C103.299 24.505 100.867 25.5509 100.551 28.7833Z"
		fill="#16122C"
	/>
	<path
		d="M82.1658 16.0121V24.2199C83.1763 22.5404 84.945 21.558 87.2185 21.558C91.2293 21.558 94.6084 25.0123 94.6084 30.4628C94.6084 35.9451 91.2297 39.3995 87.2185 39.3995C84.945 39.3995 83.1763 38.417 82.1658 36.7375V38.9875H78.408V16.0121H82.1658ZM86.3974 36.3256C88.8922 36.3256 90.6923 34.0756 90.6923 30.4628C90.6923 26.8818 88.8925 24.6319 86.3974 24.6319C83.9341 24.6319 82.0079 26.5333 82.0079 30.4628C82.0079 34.3922 83.9341 36.3256 86.3974 36.3256Z"
		fill="#16122C"
	/>
	<path
		d="M75.2366 16.0121V19.815H71.4788V16.0121H75.2366ZM75.2366 21.9384V38.9879H71.4788V21.9384H75.2366Z"
		fill="#16122C"
	/>
	<path d="M57.8226 35.597H69.3491V38.9879H53.8118V16.0121H57.8222V35.5966L57.8226 35.597Z" fill="#16122C" />
	<path
		d="M32.6727 14.0001H23.6755V21.7129H32.6727V30.7418H40.359V21.7129V14.0001H32.6727Z"
		fill="url(#paint0_linear_11376_1570)"
	/>
	<path d="M31.3615 33.2867L23.6755 40.9999H32.6727L40.359 33.2867H31.3615Z" fill="url(#paint1_linear_11376_1570)" />
	<path
		d="M28.1739 33.2867H21.1391V14.0001L13.4531 21.7129V40.9999H20.4879L28.1739 33.2867Z"
		fill="url(#paint2_linear_11376_1570)"
	/>
	<defs>
		<linearGradient
			id="paint0_linear_11376_1570"
			x1="13.1231"
			y1="41.3307"
			x2="39.8232"
			y2="14.7239"
			gradientUnits="userSpaceOnUse"
		>
			<stop stop-color="#644DF9" />
			<stop offset="1" stop-color="#FCCBFF" />
		</linearGradient>
		<linearGradient
			id="paint1_linear_11376_1570"
			x1="20.4837"
			y1="48.717"
			x2="47.1838"
			y2="22.1102"
			gradientUnits="userSpaceOnUse"
		>
			<stop stop-color="#644DF9" />
			<stop offset="1" stop-color="#FCCBFF" />
		</linearGradient>
		<linearGradient
			id="paint2_linear_11376_1570"
			x1="10.0772"
			y1="38.2738"
			x2="36.7769"
			y2="11.667"
			gradientUnits="userSpaceOnUse"
		>
			<stop stop-color="#644DF9" />
			<stop offset="1" stop-color="#FCCBFF" />
		</linearGradient>
	</defs>
</svg>
