<svg width="50" height="11" viewBox="0 0 50 11" fill="none" xmlns="http://www.w3.org/2000/svg">
<path d="M47.1245 10.1361H45.3926L47.4928 0.130615H49.2248L47.1245 10.1361Z" fill="white"/>
<path d="M41.5057 0.130615H43.3195L44.9696 10.1361H43.2104L42.8967 8.05212H38.7782L37.6326 10.1361H35.7643L41.5057 0.130615ZM39.5691 6.60323H42.6785L42.024 2.15943L39.5691 6.60323Z" fill="white"/>
<path d="M32.6686 0.751465H34.2915V2.71111H35.7643V3.89799H34.2915V7.94158C34.2915 8.70061 34.4687 8.88002 35.1644 8.88002H35.7509V10.1359H34.5507C32.9823 10.1359 32.6688 9.70807 32.6688 8.19V3.89799H31.5777V2.71111H32.6688V0.751465H32.6686Z" fill="white"/>
<path d="M31.107 4.38109C30.8343 4.35345 30.5751 4.33971 30.3298 4.33971C29.3069 4.33971 28.7205 4.75366 28.7205 6.24424V10.1361H27.0977V2.71125H28.6932V4.03616C29.0887 3.20811 29.7979 2.71125 30.6843 2.69751C30.8072 2.69751 30.9845 2.71125 31.1071 2.72515V4.38124L31.107 4.38109Z" fill="white"/>
<path d="M20.2925 6.89304C20.4016 8.27307 21.3563 8.94934 22.2838 8.94934C23.1293 8.94934 23.7976 8.60426 24.084 7.91424H25.6795C25.3385 9.10112 24.2475 10.3156 22.3519 10.3156C19.9926 10.3156 18.6424 8.49401 18.6424 6.36869C18.6424 4.13298 20.1563 2.5459 22.2428 2.5459C24.4932 2.5459 25.8978 4.39515 25.7614 6.89304H20.2927H20.2925ZM20.2925 5.69227H24.1111C24.0702 4.53303 23.1975 3.82912 22.2428 3.82912C21.4791 3.82912 20.4289 4.2846 20.2925 5.69227Z" fill="white"/>
<path d="M12.3528 0.130615V3.70498C12.7891 2.97359 13.553 2.54574 14.5348 2.54574C16.2669 2.54574 17.7261 4.05007 17.7261 6.42366C17.7261 8.81115 16.267 10.3155 14.5348 10.3155C13.553 10.3155 12.7891 9.88763 12.3528 9.15624V10.1361H10.7299V0.130615H12.3528ZM14.1802 8.97682C15.2576 8.97682 16.035 7.997 16.035 6.42366C16.035 4.86422 15.2577 3.88439 14.1802 3.88439C13.1164 3.88439 12.2846 4.71244 12.2846 6.42366C12.2846 8.13488 13.1164 8.97682 14.1802 8.97682Z" fill="white"/>
<path d="M9.36047 0.130615V1.78671H7.73764V0.130615H9.36047ZM9.36047 2.71142V10.1362H7.73764V2.71142H9.36047Z" fill="white"/>
<path d="M1.84016 8.65953H6.81788V10.1362H0.108093V0.130615H1.84001V8.65938L1.84016 8.65953Z" fill="white"/>
</svg>
